<svg width="108" height="123" viewBox="0 0 108 123" fill="none" xmlns="http://www.w3.org/2000/svg">
<path d="M105.4 28.7L57.1 0.899951C56.3 0.399951 55.2 0.199951 54 0.199951C52.8 0.199951 51.7 0.499951 50.9 0.899951L2.9 28.7999C1.2 29.7999 0 32.2999 0 34.2V89.9C0 91 0.2 92.3 1 93.4L107.8 31.4C107.2 30.2 106.3 29.3 105.4 28.7Z" fill="#9B4F96"/>
<path d="M0.699951 92.3999C1.19995 93.1999 1.89995 93.8999 2.59995 94.2999L50.7999 122.2C51.5999 122.7 52.7 122.9 53.9 122.9C55.1 122.9 56.2 122.6 57 122.2L105 94.2999C106.7 93.2999 107.9 90.7999 107.9 88.8999V33.1999C107.9 32.2999 107.8 31.2999 107.3 30.3999L0.699951 92.3999Z" fill="#68217A"/>
<path d="M75.3 73.9999C71.1 81.3999 63.1 86.3999 54 86.3999C40.5 86.3999 29.5 75.3999 29.5 61.8999C29.5 48.3999 40.5 37.3999 54 37.3999C63.1 37.3999 71.1 42.3999 75.3 49.8999L88.3 42.3999C81.5 30.4999 68.7 22.3999 54 22.3999C32.2 22.3999 14.5 40.0999 14.5 61.8999C14.5 83.6999 32.2 101.4 54 101.4C68.6 101.4 81.4 93.3999 88.2 81.5999L75.3 73.9999ZM87 64.0999L87.9 59.7999H83.7V55.0999H88.8L90 48.8999H94.9L93.7 54.9999H97.5L98.7 48.8999H103.5L102.3 54.9999H104.7V59.6999H101.4L100.5 63.9999H104.7V68.6999H99.6L98.4 74.6999H93.5L94.7 68.6999H90.9L89.7 74.6999H84.9L86.1 68.6999H83.7V63.9999H87V64.0999ZM91.8 64.0999H95.6L96.5 59.7999H92.7L91.8 64.0999Z" fill="white"/>
</svg>
