<svg width="50" height="50" viewBox="0 0 50 50" fill="none" xmlns="http://www.w3.org/2000/svg">
<path fill-rule="evenodd" clip-rule="evenodd" d="M29.5878 11.877L29.5425 39.4069L9.44779 36.6233C9.907 36.1613 10.4909 36.0451 11.1542 35.7814C11.7268 35.5547 12.1747 35.3818 12.7388 35.1578C13.8358 34.7241 14.9725 34.1799 15.9986 33.8964L16.0015 15.1199L29.5878 11.877ZM9.03394 36.3796C9.03394 36.3796 9.20968 36.5836 9.38259 36.697C9.57535 36.8218 9.62921 36.8274 9.84464 36.9181C10.1678 37.0514 10.5051 37.1591 10.8509 37.281C11.5454 37.5191 12.1322 37.7543 12.8323 38.018L24.7378 42.4173C30.0215 44.2712 28.4993 44.583 32.8987 43.262L39.2114 41.4139C40.3481 41.0765 40.8441 41.1616 40.966 40.6258V9.37123C40.7364 8.89217 40.8526 9.04808 40.1411 8.84115L36.972 7.9284C35.5831 7.53439 34.1941 7.12053 32.7654 6.69534C31.2376 6.2418 29.996 5.57566 28.5787 6.15676L9.03394 13.4701V36.3796Z" fill="#EB3B00"/>
</svg>
