<svg width="128" height="128" viewBox="0 0 128 128" fill="none" xmlns="http://www.w3.org/2000/svg">
<path d="M63.391 1.9881C59.169 2.0081 55.139 2.3671 51.591 2.9951C41.141 4.8411 39.245 8.7051 39.245 15.8321V25.2431H63.938V28.3801H29.977C22.801 28.3801 16.517 32.6931 14.551 40.9011C12.283 50.3061 12.183 56.1761 14.551 65.9971C16.306 73.3081 20.498 78.5161 27.675 78.5161H36.166V67.2341C36.166 59.0831 43.217 51.8941 51.592 51.8941H76.257C83.123 51.8941 88.603 46.2401 88.603 39.3461V15.8331C88.603 9.1401 82.957 4.1131 76.257 2.9961C72.013 2.2901 67.612 1.9691 63.391 1.9881ZM50.037 9.5571C52.587 9.5571 54.671 11.6741 54.671 14.2781C54.671 16.8711 52.588 18.9681 50.037 18.9681C47.477 18.9681 45.404 16.8711 45.404 14.2781C45.403 11.6741 47.477 9.5571 50.037 9.5571Z" fill="url(#paint0_linear)"/>
<path d="M91.682 28.3799V39.3459C91.682 47.8459 84.474 55.0009 76.256 55.0009H51.591C44.835 55.0009 39.245 60.7839 39.245 67.5499V91.0649C39.245 97.7559 45.063 101.693 51.591 103.612C59.407 105.909 66.903 106.325 76.256 103.612C82.472 101.811 88.602 98.1889 88.602 91.0649V81.6529H63.938V78.5149H100.95C108.126 78.5149 110.802 73.5099 113.298 65.9959C115.876 58.2609 115.765 50.8219 113.298 40.8999C111.524 33.7549 108.137 28.3789 100.95 28.3789H91.682V28.3799ZM77.809 87.9269C80.37 87.9269 82.443 90.0239 82.443 92.6189C82.443 95.2209 80.369 97.3379 77.809 97.3379C75.259 97.3379 73.176 95.2209 73.176 92.6189C73.176 90.0239 75.259 87.9269 77.809 87.9269Z" fill="url(#paint1_linear)"/>
<path opacity="0.444" d="M97.309 119.597C97.309 123.14 82.493 126.013 64.218 126.013C45.942 126.013 31.126 123.14 31.126 119.597C31.126 116.053 45.941 113.18 64.218 113.18C82.493 113.18 97.309 116.052 97.309 119.597Z" fill="url(#paint2_radial)"/>
<defs>
<linearGradient id="paint0_linear" x1="10.3369" y1="4.93073" x2="67.2907" y2="53.5006" gradientUnits="userSpaceOnUse">
<stop stop-color="#5A9FD4"/>
<stop offset="1" stop-color="#306998"/>
</linearGradient>
<linearGradient id="paint1_linear" x1="88.7189" y1="83.6923" x2="68.2943" y2="55.0501" gradientUnits="userSpaceOnUse">
<stop stop-color="#FFD43B"/>
<stop offset="1" stop-color="#FFE873"/>
</linearGradient>
<radialGradient id="paint2_radial" cx="0" cy="0" r="1" gradientUnits="userSpaceOnUse" gradientTransform="translate(64.0842 119.413) rotate(-90) scale(6.41832 28.2139)">
<stop stop-color="#B8B8B8" stop-opacity="0.498"/>
<stop offset="1" stop-color="#7F7F7F" stop-opacity="0"/>
</radialGradient>
</defs>
</svg>
