<svg width="128" height="128" viewBox="0 0 128 128" fill="none" xmlns="http://www.w3.org/2000/svg">
<path d="M64 124C97.1371 124 124 97.1371 124 64C124 30.8629 97.1371 4 64 4C30.8629 4 4 30.8629 4 64C4 97.1371 30.8629 124 64 124Z" fill="#382B73"/>
<path d="M64 115.25C92.3046 115.25 115.25 92.3046 115.25 64C115.25 35.6954 92.3046 12.75 64 12.75C35.6954 12.75 12.75 35.6954 12.75 64C12.75 92.3046 35.6954 115.25 64 115.25Z" fill="#473080"/>
<path d="M97.446 42.6616H53.615C52.09 42.6616 50.854 43.8976 50.854 45.4226V55.8666H30.511C28.986 55.8666 27.75 57.1026 27.75 58.6276V89.5781C27.75 91.1031 28.986 92.3391 30.511 92.3391H74.3415C75.8665 92.3391 77.1025 91.1031 77.1025 89.5781V79.1341H97.4455C98.9705 79.1341 100.206 77.8981 100.206 76.3731V45.4221C100.207 43.8976 98.9705 42.6616 97.446 42.6616Z" fill="#382B73"/>
<path d="M74.3415 88.839H30.511C28.986 88.839 27.75 87.603 27.75 86.078V56.6275C27.75 55.1025 28.986 53.8665 30.511 53.8665H74.3415C75.8665 53.8665 77.1025 55.1025 77.1025 56.6275V86.078C77.1025 87.6025 75.8665 88.839 74.3415 88.839Z" fill="#D1D3D4"/>
<path d="M74.3415 87.339H30.511C28.986 87.339 27.75 86.103 27.75 84.578V55.1275C27.75 53.6025 28.986 52.3665 30.511 52.3665H74.3415C75.8665 52.3665 77.1025 53.6025 77.1025 55.1275V84.578C77.1025 86.103 75.8665 87.339 74.3415 87.339Z" fill="white"/>
<path d="M74.3415 52.3665H30.511C28.986 52.3665 27.75 53.603 27.75 55.1275V60.0745H77.1025V55.1275C77.1025 53.6025 75.8665 52.3665 74.3415 52.3665Z" fill="#1CAEE4"/>
<path d="M33.394 55.6668C33.394 56.2903 32.8885 56.7958 32.265 56.7958C31.6415 56.7958 31.136 56.2903 31.136 55.6668C31.136 55.0433 31.6415 54.5378 32.265 54.5378C32.8885 54.5378 33.394 55.0433 33.394 55.6668Z" fill="white"/>
<path d="M27.75 58.4866H77.1025V60.0741H27.75V58.4866Z" fill="#009ADD"/>
<path d="M74.3415 52.3665H50.854V74.873C50.854 76.398 52.09 77.634 53.615 77.634H77.1025V55.1275C77.1025 53.6025 75.8665 52.3665 74.3415 52.3665Z" fill="#D1D3D4"/>
<path d="M97.446 75.6334H53.615C52.09 75.6334 50.854 74.3974 50.854 72.8724V43.4219C50.854 41.8969 52.09 40.6609 53.615 40.6609H97.4455C98.9705 40.6609 100.207 41.8969 100.207 43.4219V72.8724C100.207 74.3974 98.9705 75.6334 97.446 75.6334Z" fill="#E43D91"/>
<path d="M97.446 74.1334H53.615C52.09 74.1334 50.854 72.8974 50.854 71.3724V41.9219C50.854 40.3969 52.09 39.1609 53.615 39.1609H97.4455C98.9705 39.1609 100.207 40.3969 100.207 41.9219V71.3724C100.207 72.8974 98.9705 74.1334 97.446 74.1334Z" fill="#EF5A9D"/>
<path d="M97.446 39.1609H53.615C52.09 39.1609 50.854 40.3969 50.854 41.9219V46.8689H100.207V41.9219C100.207 40.3974 98.9705 39.1609 97.446 39.1609Z" fill="#FEDE3A"/>
<path d="M56.4985 42.462C56.4985 43.0855 55.993 43.591 55.3695 43.591C54.746 43.591 54.2405 43.0855 54.2405 42.462C54.2405 41.8385 54.746 41.333 55.3695 41.333C55.993 41.333 56.4985 41.8385 56.4985 42.462Z" fill="#E7AD27"/>
<path d="M50.854 45.2815H100.207V46.869H50.854V45.2815Z" fill="#E7AD27"/>
<path d="M38.244 83.314H32.351C31.68 83.314 31.1365 82.77 31.1365 82.0995C31.1365 81.429 31.6805 80.885 32.351 80.885H38.2435C38.9145 80.885 39.458 81.429 39.458 82.0995C39.4585 82.7705 38.9145 83.314 38.244 83.314Z" fill="#D1D3D4"/>
<path d="M46.702 78.4366H32.351C31.68 78.4366 31.1365 77.8926 31.1365 77.2221C31.1365 76.5511 31.6805 76.0076 32.351 76.0076H46.702C47.373 76.0076 47.9165 76.5516 47.9165 77.2221C47.9165 77.8926 47.373 78.4366 46.702 78.4366Z" fill="#D1D3D4"/>
<path d="M39.619 73.5584H32.351C31.68 73.5584 31.1365 73.0149 31.1365 72.3439C31.1365 71.6729 31.6805 71.1294 32.351 71.1294H39.6185C40.2895 71.1294 40.833 71.6734 40.833 72.3439C40.8335 73.0149 40.2895 73.5584 39.619 73.5584Z" fill="#D1D3D4"/>
<path d="M35.244 68.681H32.3515C31.6805 68.681 31.137 68.137 31.137 67.4665C31.137 66.796 31.681 66.252 32.3515 66.252H35.244C35.915 66.252 36.4585 66.796 36.4585 67.4665C36.4585 68.1375 35.9145 68.681 35.244 68.681Z" fill="#D1D3D4"/>
<path d="M46.473 68.681H40.1935C39.5225 68.681 38.979 68.137 38.979 67.4665C38.979 66.796 39.523 66.252 40.1935 66.252H46.4725C47.143 66.252 47.687 66.796 47.687 67.4665C47.6875 68.1375 47.1435 68.681 46.473 68.681Z" fill="#D1D3D4"/>
<path d="M67.244 83.314H43.173C42.502 83.314 41.9585 82.77 41.9585 82.0995C41.9585 81.429 42.5025 80.885 43.173 80.885H67.244C67.915 80.885 68.4585 81.429 68.4585 82.0995C68.4585 82.7705 67.9145 83.314 67.244 83.314Z" fill="#D1D3D4"/>
<path d="M66.3495 59.3184C65.715 58.9574 64.839 58.6269 63.6705 58.3074C62.4965 57.9864 61.938 57.6729 61.676 57.4664C61.4295 57.2719 61.324 57.0599 61.324 56.7579C61.324 56.4129 61.449 56.1714 61.742 55.9504C62.1065 55.6759 62.6415 55.5369 63.333 55.5369C64.031 55.5369 64.5525 55.6989 64.9275 56.0324C65.272 56.3389 65.433 56.7309 65.433 57.2654C65.433 57.8179 65.8805 58.2654 66.433 58.2654H67.455C68.007 58.2654 68.455 57.8179 68.455 57.2654C68.455 56.4009 68.2285 55.6024 67.7815 54.8939C67.336 54.1874 66.7075 53.6324 65.9115 53.2429C65.147 52.8689 64.279 52.6794 63.3335 52.6794C61.9395 52.6794 60.7615 53.0379 59.831 53.7449C58.831 54.5044 58.302 55.5539 58.302 56.7789C58.302 58.0429 58.8685 59.1169 59.9375 59.8819C60.6105 60.3674 61.603 60.7904 62.972 61.1754C64.4155 61.5809 64.9675 61.9204 65.1675 62.0859C65.3255 62.2174 65.5075 62.4285 65.5075 62.8955C65.5075 63.2555 65.3765 63.5045 65.07 63.7275C64.681 64.0105 64.122 64.154 63.408 64.154C62.59 64.154 61.947 63.978 61.497 63.629C61.1105 63.3295 60.9375 62.9555 60.9375 62.417C60.9375 61.865 60.4895 61.417 59.9375 61.417H58.924C58.372 61.417 57.924 61.865 57.924 62.417C57.924 63.3195 58.165 64.136 58.642 64.846C59.1155 65.55 59.8035 66.099 60.6865 66.477C61.515 66.8315 62.4305 67.011 63.4085 67.011C64.862 67.011 66.07 66.6545 67 65.951C68.001 65.1934 68.53 64.1305 68.53 62.8779C68.53 62.0884 68.3355 61.3835 67.953 60.7825C67.5835 60.2065 67.044 59.7139 66.3495 59.3184Z" fill="white"/>
<path d="M78.8865 53.5115C78.0175 52.9595 77.0075 52.679 75.885 52.679C74.778 52.679 73.776 52.9605 72.906 53.517C72.036 54.0735 71.358 54.871 70.892 55.8875C70.4455 56.859 70.2195 57.9775 70.2195 59.2105V60.5585C70.2255 61.783 70.4575 62.8885 70.9085 63.845C71.379 64.8425 72.0595 65.628 72.931 66.1795C73.802 66.7315 74.8015 67.011 75.9015 67.011C76.2725 67.011 76.6425 66.977 77.0075 66.9095L79.0725 68.696C79.2605 68.8585 79.494 68.9395 79.727 68.9395C79.9655 68.9395 80.204 68.8545 80.3935 68.685L81.094 68.0585C81.308 67.867 81.4295 67.5935 81.4275 67.3065C81.4255 67.02 81.301 66.7475 81.0845 66.559L79.8105 65.4485C80.236 65.0175 80.5915 64.504 80.873 63.9135C81.339 62.933 81.575 61.783 81.575 60.4955V59.2015C81.575 57.9615 81.3485 56.841 80.902 55.873C80.436 54.8605 79.757 54.0655 78.8865 53.5115ZM75.885 55.57C76.727 55.57 77.335 55.841 77.7995 56.422C78.3055 57.0555 78.5615 57.9885 78.5615 59.1945V60.4725C78.5615 61.702 78.307 62.647 77.8045 63.281C77.346 63.86 76.741 64.1295 75.901 64.1295C75.0735 64.1295 74.4705 63.8535 74.003 63.262C73.4915 62.6135 73.2325 61.683 73.2325 60.497V59.244C73.2325 58.012 73.4925 57.0655 74.005 56.43C74.4785 55.8435 75.0755 55.57 75.885 55.57Z" fill="white"/>
<path d="M92.139 63.9895H87.212V53.8445C87.212 53.2925 86.7645 52.8445 86.212 52.8445H85.1895C84.637 52.8445 84.1895 53.2925 84.1895 53.8445V65.847C84.1895 66.399 84.637 66.847 85.1895 66.847H92.1385C92.691 66.847 93.1385 66.399 93.1385 65.847V64.9895C93.139 64.437 92.691 63.9895 92.139 63.9895Z" fill="white"/>
</svg>
