<svg width="50" height="50" viewBox="0 0 50 50" fill="none" xmlns="http://www.w3.org/2000/svg">
<path d="M25 50C38.8071 50 50 38.8071 50 25C50 11.1929 38.8071 0 25 0C11.1929 0 0 11.1929 0 25C0 38.8071 11.1929 50 25 50Z" fill="#6E64C3"/>
<path d="M39.5712 12.6372L32.6722 9.84937L20.5199 21.6249L13.1778 16.055L10.3928 17.4475L10.4286 32.1618L28.078 49.8112C40.4328 48.2941 50 37.7648 50 25C50 24.3215 49.9719 23.6497 49.9189 22.9848L39.5712 12.6372Z" fill="#5046AF"/>
<path d="M39.5712 12.6372L32.6722 9.84937L20.5199 21.6248L13.1778 16.055L10.3928 17.4475L10.4286 32.1618L13.2135 33.5542L20.5556 27.9844L32.708 39.7599L39.607 36.9721L39.5712 12.6372ZM13.9098 27.9211V21.6882L17.3552 24.8046H17.391L13.9098 27.9211ZM31.9801 29.994L25.0536 24.8046H25.0178L31.9801 19.6153V29.994Z" fill="white"/>
</svg>
